<?xml version="1.0" encoding="utf-8"?>
<!-- Generator: Adobe Illustrator 18.1.1, SVG Export Plug-In . SVG Version: 6.00 Build 0)  -->
<svg width="30px" height="30px" version="1.1" id="Layer_1" xmlns="http://www.w3.org/2000/svg" xmlns:xlink="http://www.w3.org/1999/xlink" x="0px" y="0px"
	 viewBox="2461.1 83.9 511.1 598.5" enable-background="new 2461.1 83.9 511.1 598.5" xml:space="preserve">
<rect x="2541.4" y="265.4" transform="matrix(0.9752 -0.2213 0.2213 0.9752 -5.587 581.332)" fill="#FFFFFF" width="100.4" height="100.4"/>
<rect x="2737.5" y="220.9" transform="matrix(0.9752 -0.2213 0.2213 0.9752 9.1203 623.619)" fill="#FFFFFF" width="100.4" height="100.4"/>
<rect x="2661.2" y="339.7" transform="matrix(-0.9752 0.2213 -0.2213 -0.9752 5441.9111 170.0736)" fill="#FFFFFF" width="100.4" height="100.4"/>
<rect x="2617.1" y="145.3" transform="matrix(-0.9752 0.2213 -0.2213 -0.9752 5311.7725 -204.1071)" fill="#FFFFFF" width="100.4" height="100.4"/>
<rect x="2857.3" y="295.2" transform="matrix(-0.9752 0.2213 -0.2213 -0.9752 5819.355 38.8001)" fill="#FFFFFF" width="100.4" height="100.4"/>
<rect x="2813.2" y="100.8" transform="matrix(-0.9752 0.2213 -0.2213 -0.9752 5689.2158 -335.3806)" fill="#FFFFFF" width="100.4" height="100.4"/>
<g>
	
		<rect x="2639.3" y="242.8" transform="matrix(-0.2213 -0.9752 0.9752 -0.2213 2998.8687 2980.5999)" width="100.4" height="100.4"/>
	<path d="M2972.2,386.2l-67.7-298.4l-0.9-3.8l-399.5,90.7v0l-43,9.8l113,498.1l43.6-9.9l-44.4-195.9L2972.2,386.2z M2919.5,189.3
		l-94.1,21.3l22.2,97.9l94.1-21.3l21.1,93.1l-94.1,21.4l-21.3-93.7l-97.9,22.2l21.3,93.7l-98.2,22.3l-21.3-93.7l-94.1,21.3l-22-96.9
		l94.1-21.3l-21.9-96.4l98.2-22.3l21.9,96.4l97.9-22.2l-21.9-96.4l94.1-21.4L2919.5,189.3z"/>
</g>
</svg>
