<?xml version="1.0" encoding="utf-8"?>
<!-- Generator: Adobe Illustrator 18.1.1, SVG Export Plug-In . SVG Version: 6.00 Build 0)  -->
<svg version="1.1" xmlns="http://www.w3.org/2000/svg" xmlns:xlink="http://www.w3.org/1999/xlink" x="0px" y="0px"
	 viewBox="0 0 234 134.4" enable-background="new 0 0 234 134.4" xml:space="preserve">
<g id="Layer_1">
	<g id="logo">
	</g>
</g>
<g id="source">
</g>
<g id="Layer_4">
	<g id="rickshaw-boys_1_">
		<path d="M231.9,9c-0.3-0.4-0.6-0.7-1-1c-0.3-0.4-0.6-0.7-1-1c-0.3-0.4-0.6-0.7-1-1c-0.3-0.4-0.6-0.7-1-1c-0.3-0.4-0.6-0.7-1-1
			c-0.3-0.4-0.6-0.7-1-1c-0.3-0.4-0.6-0.7-1-1c-0.9-1.2-2.4-2-4-2c-2.5,0-3.7,0-6.2,0c-2.2,0-4,0.7-5.3,1.9
			c-1.2,1.1-1.9,2.5-2.3,4.4c0,0.1,0,0.2,0,0.2l-1.2,6.7c-0.5-0.5-1.1-0.8-1.7-1.1c-0.4-0.6-0.8-1.1-1.3-1.5c0,0-0.1-0.1-0.1-0.1
			c-0.3-0.3-0.5-0.6-0.9-0.9c0,0-0.1-0.1-0.1-0.1c-0.3-0.3-0.5-0.6-0.9-0.9c0,0-0.1-0.1-0.1-0.1c-0.3-0.3-0.5-0.6-0.9-0.9
			c0,0-0.1-0.1-0.1-0.1c-0.3-0.3-0.5-0.6-0.9-0.9c0,0-0.1-0.1-0.1-0.1c-0.3-0.3-0.5-0.6-0.9-0.9c0,0-0.1-0.1-0.1-0.1
			c-0.3-0.3-0.5-0.6-0.9-0.9c0,0-0.1-0.1-0.1-0.1c-0.3-0.3-0.5-0.6-0.9-0.9c0,0-0.1-0.1-0.1-0.1c-0.3-0.3-0.5-0.6-0.9-0.9
			c-1.4-1.2-3.3-1.8-5.6-1.6c-2.5,0.2-3.7,0.3-6.2,0.5c0,0,0,0,0,0c0,0,0,0,0,0c-1,0.1-1.8,0.4-2.6,1c-1.4-0.4-3-0.5-4.7-0.3
			c-3.8,0.4-5.7,0.5-9.5,1c-2.6,0.3-4.8,1.1-6.6,2.5c-1-0.9-2.4-1.5-3.9-1.3c0,0,0,0,0,0c-2.5,0.3-3.7,0.4-6.2,0.8
			c-3.7,0.5-6.3,2.7-7,5.9c-0.1-0.1-0.2-0.2-0.2-0.3c-0.1-0.1-0.1-0.1-0.2-0.2c-0.2-0.3-0.5-0.6-0.8-0.8c-0.1-0.1-0.1-0.1-0.2-0.2
			c-0.2-0.3-0.5-0.6-0.8-0.8c-1.1-1-3.1-2-6.2-1.6c-2.5,0.3-3.7,0.5-6.1,0.8c-1.5,0.2-2.8,1.1-3.5,2.3c-1.9-1-4.1-1.2-6.8-0.9
			l-9.5,1.4c-2.6,0.4-4.7,1.3-6.4,2.7c-1-0.9-2.4-1.3-3.9-1.1v0c-2.6,0.4-3.9,0.5-6.5,0.9c-2.6,0.4-4.7,1.7-5.8,3.7
			c-0.2-0.2-0.4-0.4-0.5-0.5c-1.1-0.9-2.9-2-5.8-1.6c-2.6,0.3-3.8,0.5-6.4,0.8c-1.5,0.2-2.8,1.1-3.6,2.3c-1.9-1-4.1-1.4-6.8-1.1
			c-3.8,0.4-5.7,0.6-9.4,1c-2.5,0.2-4.6,1-6.3,2.3c-1-1-2.4-1.5-3.9-1.4c-4.4,0.4-6.5,0.5-10.7,0.8c-1.6,0.1-2.9,0.9-3.8,2.2
			c-1.5-0.9-3.6-1.7-6.5-1.5c-7,0.3-10.4,0.4-17,0.4c-2.8,0-5,2.2-5,5c0,1.5,0.7,2.9,1.8,3.8v29.8C0.7,60.2,0,61.6,0,63.1
			c0,1.6,0.8,3.1,2,4c0.3,0.4,0.6,0.7,1,1c0.3,0.4,0.6,0.7,1,1c0.3,0.4,0.6,0.7,1,1c0.3,0.4,0.6,0.7,1,1c0.3,0.4,0.6,0.7,1,1
			c0.3,0.4,0.6,0.7,1,1c0.3,0.4,0.6,0.7,1,1c0.9,1.2,2.4,2,4,2c2.6,0,3.9,0,6.5-0.1c2.6,0,4.8-1.2,6.1-3c0,0,0.1,0.1,0.1,0.1
			c0.2,0.2,0.4,0.4,0.6,0.6c1,0.9,2.8,2,5.6,1.9c2.6-0.1,3.9-0.2,6.5-0.3c0.4,0,0.9-0.1,1.2-0.3c0.3,0.1,0.7,0.1,1,0.1
			c0.1,0,0.2,0,0.3,0c3.7-0.2,5.8-0.4,9.1-0.7l0,28.1c-1.2,1-2,2.6-1.8,4.3c0.1,1.4,0.9,2.7,2,3.5c0.3,0.4,0.6,0.7,1,1
			c0.3,0.4,0.6,0.7,1,1c0.3,0.4,0.6,0.7,1,1c0.3,0.4,0.6,0.7,1,1c0.3,0.4,0.6,0.7,1,1c0.3,0.4,0.6,0.7,1,1c0.3,0.4,0.6,0.7,1,1
			c0.9,1.2,2.4,2,4,2c0.2,0,0.3,0,0.5,0c7-0.7,10.5-1.1,17.4-1.9c3-0.4,5.4-1.5,7.3-3.5c0.6-0.6,1.1-1.3,1.5-2c0,0,0.1,0.1,0.1,0.1
			c0.3,0.3,0.6,0.6,0.9,0.9c1.7,1.5,3.9,2.2,6.4,2.2c0.6,0,1.3,0,2-0.1c4.8-0.6,7.2-1,12-1.7c6.2-0.9,10-4.9,10.3-11
			c0.1,0.1,0.2,0.2,0.3,0.3c0.1,0,0.1,0.1,0.2,0.1c0.3,0.3,0.6,0.6,0.8,0.9c0.1,0,0.1,0.1,0.2,0.1c0.3,0.3,0.6,0.6,0.8,0.9
			c0.1,0,0.1,0.1,0.2,0.1c0.3,0.3,0.6,0.6,0.8,0.9c0.1,0,0.1,0.1,0.2,0.1c0.3,0.3,0.6,0.6,0.8,0.9c0.1,0,0.1,0.1,0.2,0.1
			c0.3,0.3,0.6,0.6,0.8,0.9c0.1,0,0.1,0.1,0.2,0.1c0.3,0.3,0.6,0.6,0.8,0.9c0.9,0.8,2.4,1.6,4.6,1.6c0.4,0,0.8,0,1.3-0.1
			c2.6-0.4,3.9-0.5,6.4-0.9c2.7-0.4,4.6-2.9,4.3-5.6c0-0.2-0.1-0.3-0.1-0.4c0.1,0.1,0.1,0.1,0.2,0.2c0.3,0.4,0.6,0.7,1,1
			c0.3,0.4,0.6,0.7,1,1c0.3,0.4,0.6,0.7,1,1c0.3,0.4,0.6,0.7,1,1c0.9,1.2,2.4,2,4,2c1.8,0,3.4-0.9,4.2-2.3c6.1-0.8,9.7-1.2,16.2-2
			c6.5-0.7,10.4-5.1,10.4-11.6v-2.9c1.2-1,2-2.6,1.8-4.4c-0.1-1.4-0.9-2.7-2-3.5c-0.3-0.4-0.6-0.7-1-1c-0.3-0.4-0.6-0.7-1-1
			c-0.3-0.4-0.6-0.7-1-1c-0.3-0.4-0.6-0.7-1-1c-0.3-0.4-0.6-0.7-0.9-1c0.6-0.8,1.2-1.6,1.8-2.5c2.2-2.7,3.3-6,3.3-9.9v-5.3
			c0-0.7-0.2-1.4-0.4-2c3.7-0.4,6.9-0.7,11.7-1.1c0.5,0,1-0.2,1.4-0.3c0.3,0.1,0.7,0.1,1,0.1c0.1,0,0.3,0,0.4,0c0,0,0,0,0,0
			c2.4-0.2,3.6-0.3,6-0.4c2.7-0.2,4.3-1.4,5.3-2.4c0.5-0.5,0.9-1.1,1.8-2.6c0.3-0.5,0.7-1.1,1.1-1.9c0,0,0,0,0,0
			c0.1,0.1,0.3,0.3,0.5,0.4c0.2,0.2,0.4,0.4,0.5,0.6c0.1,0.1,0.3,0.3,0.5,0.4c0.2,0.2,0.4,0.4,0.5,0.6c0.1,0.1,0.3,0.3,0.5,0.4
			c0.2,0.2,0.4,0.4,0.5,0.6c0.1,0.1,0.3,0.3,0.5,0.4c0.2,0.2,0.4,0.4,0.5,0.6c1,1,2.8,2.1,5.6,2.1c2.4-0.1,3.6-0.1,6-0.1
			c0,0,0,0,0,0c2.8,0,5-2.3,5-5c0-1.4-0.6-2.7-1.6-3.6l3.2-30c1.2-0.9,2-2.4,2-4C234,11.4,233.2,9.9,231.9,9z"/>
		<g>
			<g>
				<path fill="#FCC10F" d="M29.1,61.3c-2.6,0.2-3.9,0.2-6.5,0.3c-1.7,0.1-2.5-0.7-2.5-2.4c0-3.4,0-5.1,0-8.5c0-1.1-0.5-1.6-1.6-1.5
					c-1.6,0.1-2.5,0.1-4.1,0.1c-1,0-1.5,0.6-1.5,1.7c0,3.3,0,5,0,8.3c0,1.7-0.8,2.5-2.5,2.5c-2.6,0-3.9,0.1-6.4,0.1
					c1.2,0,1.8-0.6,1.8-1.8c0-11.3,0-22.6,0-33.9c0-1.2-0.6-1.8-1.8-1.8c6.9,0,10.3-0.1,17.2-0.4c1.8-0.1,3.3,0.3,4.3,1.3
					c1.1,1,1.7,2.4,1.7,4.3c0,3.3,0,5,0,8.4c0,1.9-0.8,3.4-2.4,4.6c1.6,0.8,2.4,2.5,2.4,5.1c0,4.7,0,7,0,11.7
					C27.3,60.8,27.9,61.4,29.1,61.3z M20.1,35.5c0-1,0-1.6,0-2.6c0-1.1-0.5-1.6-1.6-1.5c-1.6,0.1-2.4,0.1-4,0.1
					c-1.1,0-1.6,0.6-1.6,1.6c0,3.3,0,5,0,8.3C17.7,38.9,20.1,36.9,20.1,35.5z"/>
				<path fill="#E51E25" d="M4,62.6c-0.3,0-0.5-0.2-0.5-0.5s0.2-0.5,0.5-0.5c0.9,0,1.3-0.4,1.3-1.3V26.4c0-0.9-0.4-1.3-1.3-1.3
					c-0.3,0-0.5-0.2-0.5-0.5s0.2-0.5,0.5-0.5c6.7,0,10.1-0.1,17.2-0.4c1.9-0.1,3.5,0.4,4.7,1.4c1.2,1.1,1.9,2.7,1.9,4.7v8.4
					c0,1.8-0.7,3.3-2.1,4.6c1.4,1,2.1,2.7,2.1,5.2v11.7c0,0.5,0.1,0.8,0.3,1s0.5,0.3,1,0.2c0,0,0,0,0,0h0c0.3,0,0.5,0.2,0.5,0.5
					c0,0.3-0.2,0.5-0.5,0.5c-2.6,0.2-3.9,0.2-6.5,0.3c-1,0-1.7-0.2-2.2-0.7c-0.5-0.5-0.8-1.2-0.8-2.2v-8.5c0-0.4-0.1-0.7-0.2-0.8
					c-0.2-0.2-0.4-0.2-0.8-0.2c-1.6,0.1-2.5,0.1-4.1,0.1c-0.5,0-1,0.2-1,1.2v8.3c0,1.9-1.1,3-3,3C7.9,62.6,6.6,62.6,4,62.6z M6,25.1
					c0.2,0.3,0.3,0.8,0.3,1.3v33.9c0,0.5-0.1,1-0.3,1.3c1.4,0,2.6,0,4.4,0c1.4,0,2-0.6,2-2v-8.3c0-1.4,0.7-2.2,2-2.2
					c1.6,0,2.4-0.1,4.1-0.1c0.7,0,1.2,0.1,1.6,0.5c0.4,0.4,0.5,0.9,0.5,1.5v8.5c0,0.7,0.2,1.2,0.5,1.5c0.3,0.3,0.8,0.4,1.5,0.4
					c1.8-0.1,3-0.1,4.5-0.2c-0.2-0.3-0.3-0.8-0.3-1.3V47.9c0-2.4-0.7-3.9-2.2-4.7c-0.2-0.1-0.3-0.2-0.3-0.4c0-0.2,0.1-0.3,0.2-0.4
					c1.5-1.1,2.2-2.5,2.2-4.2v-8.4c0-1.8-0.5-3.1-1.5-3.9c-1-0.8-2.3-1.2-4-1.1C14.9,25,11.5,25.1,6,25.1z M12.9,41.8
					c-0.1,0-0.2,0-0.3-0.1c-0.1-0.1-0.2-0.3-0.2-0.4v-8.3c0-1.3,0.7-2.1,2.1-2.1c1.6,0,2.4-0.1,4-0.1c0.7,0,1.2,0.1,1.5,0.5
					c0.4,0.4,0.5,0.9,0.5,1.5v2.6c0,1.7-2.4,3.8-7.5,6.3C13.1,41.8,13,41.8,12.9,41.8z M18.6,31.8C18.6,31.8,18.6,31.8,18.6,31.8
					c-1.7,0.1-2.5,0.1-4.1,0.1c-0.8,0-1.1,0.3-1.1,1.1v7.4c5.6-2.9,6.2-4.5,6.2-5v-2.6c0-0.4-0.1-0.7-0.2-0.8
					C19.2,31.9,19,31.8,18.6,31.8z"/>
			</g>
			<g>
				<path fill="#FCC10F" d="M42.4,22.8c-1.2,0.1-1.9,0.7-1.9,1.9c0,0.4,0,0.6,0,0.9c0,11.1,0,22.2,0,33.3c0,1.1,0.6,1.7,1.8,1.6
					c-4.3,0.4-6.4,0.5-10.7,0.8c1.2-0.1,1.8-0.7,1.8-1.8c0-11.4,0-22.8,0-34.2c0-1.1-0.6-1.7-1.8-1.6C35.9,23.3,38.1,23.1,42.4,22.8
					z"/>
				<path fill="#E51E25" d="M31.6,61.7c-0.3,0-0.5-0.2-0.5-0.5c0-0.3,0.2-0.5,0.5-0.5c1-0.1,1.4-0.5,1.4-1.3V25.2
					c0-0.4-0.1-0.7-0.3-0.9c-0.2-0.2-0.5-0.3-1-0.2c-0.3,0-0.5-0.2-0.5-0.5c0-0.3,0.2-0.5,0.5-0.5l0,0c0,0,0,0,0,0
					c4.2-0.3,6.3-0.4,10.8-0.8c0,0,0,0,0,0l0,0c0.3,0,0.5,0.2,0.5,0.5c0,0.3-0.2,0.5-0.5,0.5l0,0c0,0,0,0,0,0
					c-1,0.1-1.4,0.5-1.4,1.4v34.2c0,0.4,0.1,0.7,0.3,0.9c0.2,0.2,0.5,0.2,1,0.2c0,0,0,0,0,0l0,0c0.3,0,0.5,0.2,0.5,0.5
					c0,0.3-0.2,0.5-0.5,0.5l0,0c0,0,0,0,0,0C38,61.3,35.9,61.4,31.6,61.7C31.7,61.7,31.7,61.7,31.6,61.7L31.6,61.7
					C31.6,61.7,31.6,61.7,31.6,61.7z M33.7,24c0.2,0.3,0.3,0.7,0.3,1.2v34.2c0,0.5-0.1,0.9-0.3,1.2c2.4-0.2,4.2-0.3,6.7-0.5
					c-0.2-0.3-0.3-0.7-0.3-1.2V24.6c0-0.5,0.1-0.9,0.3-1.2C37.8,23.7,36,23.8,33.7,24z"/>
			</g>
			<g>
				<path fill="#FCC10F" d="M70,45c-1.2,0.1-1.8,0.8-1.8,2c0,1.9,0,2.9,0,4.8c0,4-2,6.3-6,6.7c-3.8,0.4-5.7,0.6-9.5,1
					c-4,0.4-6-1.4-6-5.4c0-10.2,0-15.3,0-25.5c0-4,2-6.2,6-6.6c3.8-0.4,5.7-0.6,9.5-1c4-0.4,6,1.3,6,5.3c0,1.9,0,2.9,0,4.8
					c0,1.2,0.6,1.7,1.8,1.6c-2.6,0.3-3.9,0.5-6.5,0.8c-1.7,0.2-2.5-0.6-2.5-2.2c0-0.5,0-0.8,0-1.4c0-1.1-0.5-1.5-1.6-1.4
					c-1.6,0.2-2.4,0.3-4,0.4c-1.1,0.1-1.6,0.7-1.6,1.8c0,8.1,0,12.1,0,20.2c0,1.1,0.5,1.5,1.6,1.4c1.6-0.2,2.4-0.3,4-0.4
					c1.1-0.1,1.6-0.7,1.6-1.8c0-0.5,0-0.8,0-1.4c0-1.7,0.8-2.6,2.5-2.8C66.1,45.4,67.4,45.3,70,45z"/>
				<path fill="#E51E25" d="M51.6,60c-1.6,0-2.9-0.4-3.8-1.2c-1.1-1-1.7-2.6-1.7-4.7V28.5c0-4.3,2.2-6.6,6.5-7.1
					c3.8-0.4,5.7-0.6,9.5-1c2.2-0.2,3.8,0.1,4.9,1.1c1.1,1,1.7,2.6,1.7,4.7V31c0,0.4,0.1,0.8,0.3,0.9c0.2,0.2,0.5,0.2,1,0.2l0,0
					c0.3,0,0.5,0.2,0.6,0.4c0,0.3-0.2,0.5-0.4,0.6c0,0,0,0,0,0c-2.6,0.3-3.9,0.5-6.5,0.8c-1,0.1-1.7-0.1-2.3-0.5
					c-0.5-0.5-0.8-1.2-0.8-2.2v-1.4c0-0.3,0-0.6-0.2-0.8c-0.2-0.1-0.4-0.2-0.8-0.1c-1.6,0.2-2.4,0.3-4.1,0.4
					c-0.8,0.1-1.1,0.4-1.1,1.3l0,20.2c0,0.4,0.1,0.6,0.2,0.8c0.2,0.1,0.4,0.2,0.8,0.1c1.6-0.2,2.4-0.3,4-0.4
					c0.8-0.1,1.1-0.5,1.1-1.3v-1.4c0-1.9,1-3.1,2.9-3.3c2.6-0.3,3.9-0.4,6.5-0.8c0.3,0,0.5,0.2,0.6,0.4c0,0.3-0.2,0.5-0.4,0.6l0,0
					c0,0,0,0,0,0c-1,0.1-1.4,0.6-1.4,1.5v4.8c0,4.2-2.2,6.7-6.5,7.2c-3.8,0.4-5.7,0.6-9.5,1C52.3,60,52,60,51.6,60z M63.3,21.3
					c-0.3,0-0.7,0-1.1,0.1c-3.8,0.4-5.7,0.6-9.5,1c-3.7,0.4-5.6,2.4-5.6,6.1V54c0,1.8,0.5,3.2,1.3,4c0.9,0.8,2.3,1.1,4.1,0.9
					c3.8-0.4,5.7-0.6,9.5-1c3.7-0.4,5.6-2.4,5.6-6.2V47c0-0.5,0.1-0.9,0.3-1.3c-1.4,0.2-2.6,0.3-4.4,0.5c-1.4,0.2-2.1,0.9-2.1,2.3
					v1.4c0,1.3-0.7,2.1-2,2.3c-1.6,0.2-2.4,0.3-4.1,0.4c-0.7,0.1-1.2-0.1-1.6-0.4c-0.4-0.3-0.6-0.8-0.6-1.5l0-20.2
					c0-1.3,0.7-2.1,2-2.2c1.6-0.2,2.4-0.3,4-0.4c0.7-0.1,1.2,0.1,1.6,0.4c0.4,0.3,0.6,0.8,0.6,1.5v1.4c0,0.7,0.2,1.2,0.5,1.4
					c0.3,0.3,0.8,0.4,1.5,0.3c1.9-0.2,3.1-0.4,4.5-0.5c-0.2-0.3-0.3-0.8-0.3-1.3v-4.8c0-1.8-0.4-3.2-1.3-3.9
					C65.6,21.6,64.6,21.3,63.3,21.3z"/>
			</g>
			<g>
				<path fill="#FCC10F" d="M97.7,16.4c-1.2,0.2-1.9,0.9-1.9,2.1c0,4.1,0,6.1,0,10.1c0,2.6-0.8,4.4-2.4,5.5c1.6,0.7,2.4,2.3,2.4,4.9
					c0,5.3,0,8,0,13.3c0,1.2,0.6,1.7,1.8,1.6c-2.6,0.4-3.9,0.5-6.5,0.9c-1.7,0.2-2.5-0.5-2.5-2.1c0-4.7,0-7.1,0-11.8
					c0-1.1-0.4-1.6-1.1-1.5c-0.2,0-0.3,0.1-0.5,0.2c-1.6,0.9-2.5,1.4-4.1,2.3c-1,0.7-1.5,1.5-1.5,2.3c0,3.8,0,5.7,0,9.5
					c0,1.7-0.8,2.6-2.5,2.8c-2.6,0.3-3.9,0.5-6.4,0.8c1.2-0.1,1.8-0.8,1.8-2c0-11.3,0-22.6,0-33.9c0-1.2-0.6-1.7-1.8-1.6
					c2.6-0.3,3.9-0.5,6.4-0.8c1.7-0.2,2.5,0.5,2.5,2.2c0,5.1,0,7.7,0,12.8c4.8-2.2,7.2-4.5,7.2-6.8c0-2.8,0-4.1,0-6.9
					c0-1.7,0.8-2.6,2.5-2.8C93.8,16.9,95.1,16.7,97.7,16.4z"/>
				<path fill="#E51E25" d="M72.5,57.7c-0.2,0-0.5-0.2-0.5-0.4c0-0.3,0.2-0.5,0.4-0.6c0,0,0,0,0,0c1-0.1,1.4-0.6,1.4-1.5l0-33.9
					c0-0.4-0.1-0.8-0.3-0.9c-0.2-0.2-0.5-0.2-1-0.2c-0.3,0-0.5-0.2-0.6-0.4c0-0.3,0.2-0.5,0.4-0.6l0,0c0,0,0,0,0,0
					c2.6-0.3,3.8-0.5,6.4-0.8c1-0.1,1.7,0,2.3,0.5c0.5,0.5,0.8,1.2,0.8,2.2v12c4.1-2,6.2-4,6.2-6.1v-6.9c0-1.9,1-3.1,2.9-3.3
					c2.6-0.4,3.9-0.5,6.5-0.9l0,0c0.3,0,0.5,0.2,0.6,0.4s-0.2,0.5-0.4,0.6c0,0,0,0,0,0c-1,0.1-1.4,0.6-1.4,1.6v10.1
					c0,2.4-0.7,4.2-2,5.5c1.4,0.9,2,2.6,2,5l0,13.3c0,0.4,0.1,0.8,0.3,0.9c0.2,0.2,0.5,0.2,1,0.1l0,0c0.3,0,0.5,0.2,0.6,0.4
					c0,0.3-0.2,0.5-0.4,0.6l0,0c-2.6,0.4-3.9,0.5-6.5,0.9c-1,0.1-1.7,0-2.3-0.5c-0.5-0.5-0.8-1.2-0.8-2.2V40.9c0-0.7-0.2-0.9-0.2-1
					c0,0-0.1-0.1-0.3-0.1c-0.1,0-0.2,0.1-0.3,0.1l-4.1,2.3c-0.8,0.6-1.3,1.2-1.3,1.9v9.5c0,1.9-1,3.1-2.9,3.3
					C76.5,57.2,75.2,57.4,72.5,57.7L72.5,57.7C72.6,57.7,72.6,57.7,72.5,57.7z M74.5,19.9c0.2,0.3,0.3,0.8,0.3,1.3l0,33.9
					c0,0.5-0.1,0.9-0.3,1.3c1.4-0.2,2.5-0.3,4.3-0.6c1.4-0.2,2.1-0.9,2.1-2.3v-9.5c0-1,0.6-1.9,1.7-2.7l4.1-2.3
					c0.2-0.1,0.4-0.2,0.7-0.2c0.6-0.1,0.9,0.1,1.1,0.3c0.4,0.3,0.6,0.9,0.6,1.7v11.8c0,0.7,0.1,1.1,0.4,1.4c0.3,0.3,0.8,0.3,1.5,0.3
					c1.9-0.3,3.1-0.4,4.6-0.6c-0.2-0.3-0.3-0.8-0.3-1.3l0-13.3c0-2.4-0.7-3.8-2.1-4.4c-0.2-0.1-0.3-0.2-0.3-0.4
					c0-0.2,0.1-0.4,0.2-0.5c1.5-1,2.2-2.7,2.2-5.1V18.4c0-0.5,0.1-0.9,0.3-1.3c-1.4,0.2-2.6,0.4-4.3,0.6c-1.4,0.2-2.1,0.9-2.1,2.3
					V27c0,2.6-2.5,5.1-7.5,7.3c-0.2,0.1-0.3,0.1-0.5,0S81,34,81,33.8V21c0-0.7-0.2-1.1-0.4-1.4c-0.3-0.3-0.8-0.4-1.5-0.3
					C77.2,19.6,76,19.8,74.5,19.9z"/>
			</g>
			<g>
				<path fill="#FCC10F" d="M125.3,24.8c-2.4,0.3-3.7,0.5-6.1,0.9c-1.9,0.3-2.8-0.4-2.8-2.1c0-0.5,0-0.8,0-1.3
					c0-1.1-0.5-1.5-1.6-1.4c-1.6,0.2-2.4,0.3-4,0.6c-1.1,0.1-1.6,0.8-1.6,1.8c0,1.1,0,1.6,0,2.7c0,2,1.3,3.4,3.7,3.9
					c2.2,0.4,4.8,0.6,6.9,1.1c2.4,0.5,3.7,2.4,3.7,4.9c0,3.3,0,5,0,8.4c0,4-2,6.3-6,6.9c-3.8,0.5-5.7,0.8-9.5,1.4
					c-4,0.6-6-1.2-6-5.2c0-1.9,0-2.8,0-4.7c0-1.2-0.6-1.8-1.7-1.6c2.4-0.3,3.6-0.5,6-0.9c1.9-0.3,2.8,0.4,2.8,2.1c0,0.5,0,0.8,0,1.4
					c0,1.1,0.5,1.5,1.6,1.4c1.6-0.2,2.4-0.3,4-0.6c1.1-0.1,1.6-0.8,1.6-1.8c0-1.1,0-1.6,0-2.7c0-2-1.3-3.4-3.7-3.9
					c-2.2-0.4-4.8-0.7-6.9-1.1c-2.4-0.5-3.7-2.3-3.7-4.8c0-3.4,0-5,0-8.4c0-3.9,2-6.2,6-6.7c3.8-0.5,5.7-0.8,9.5-1.4
					c4-0.6,6,1.1,6,5c0,1.9,0,2.9,0,4.8C123.5,24.5,124.1,25,125.3,24.8z"/>
				<path fill="#E51E25" d="M106.6,53c-1.5,0-2.6-0.4-3.5-1.1c-1.1-1-1.7-2.5-1.7-4.7v-4.7c0-0.3,0-0.8-0.3-1
					c-0.2-0.1-0.5-0.2-0.9-0.1h0l0,0c-0.3,0-0.5-0.2-0.6-0.4c0-0.3,0.2-0.5,0.4-0.6l6-0.9c1.2-0.2,2,0,2.6,0.5
					c0.5,0.5,0.8,1.2,0.8,2.1v1.4c0,0.3,0,0.6,0.2,0.8c0.2,0.2,0.5,0.2,0.8,0.1l4-0.6c0.8-0.1,1.1-0.5,1.1-1.3v-2.7
					c0-2.3-1.8-3.1-3.3-3.4c-1-0.2-2.1-0.3-3.1-0.5c-1.3-0.2-2.6-0.4-3.8-0.7c-2.6-0.6-4.1-2.6-4.1-5.3v-8.4c0-4.2,2.2-6.6,6.4-7.2
					l9.5-1.4c2.2-0.3,3.8,0,4.9,1c1.1,0.9,1.6,2.5,1.6,4.5v4.8c0,0.5,0.1,0.8,0.3,0.9c0.2,0.2,0.5,0.2,1,0.1l0,0l0,0
					c0.3,0,0.5,0.2,0.6,0.4c0,0.3-0.2,0.5-0.4,0.6l-6.1,0.9c-1.2,0.2-2,0-2.6-0.5c-0.5-0.5-0.8-1.2-0.8-2.1v-1.3
					c0-0.3,0-0.6-0.2-0.8c-0.2-0.2-0.5-0.1-0.8-0.1l-4,0.6c-0.8,0.1-1.1,0.5-1.1,1.3V26c0,2.3,1.8,3.1,3.3,3.4c0.9,0.2,2,0.3,3,0.4
					c1.3,0.2,2.7,0.4,4,0.7c2.6,0.6,4.1,2.6,4.1,5.4v8.4c0,4.3-2.2,6.7-6.4,7.4l-9.5,1.4C107.5,53,107,53,106.6,53z M102.2,41.2
					c0.2,0.3,0.3,0.8,0.3,1.4v4.7c0,1.8,0.4,3.1,1.3,3.9c0.9,0.8,2.3,1,4.1,0.8l9.5-1.4c3.8-0.5,5.6-2.6,5.6-6.4v-8.4
					c0-2.3-1.2-3.9-3.3-4.4c-1.2-0.3-2.6-0.5-3.9-0.6c-1-0.1-2-0.3-3-0.5c-2.6-0.5-4.1-2.1-4.1-4.4v-2.7c0-1.3,0.7-2.1,2-2.3l4-0.6
					c0.7-0.1,1.2,0,1.6,0.3c0.4,0.3,0.6,0.8,0.6,1.5v1.3c0,0.6,0.2,1.1,0.4,1.3c0.4,0.3,1,0.4,1.8,0.3l4.2-0.6
					c-0.2-0.3-0.3-0.8-0.3-1.4v-4.8c0-1.8-0.4-3-1.3-3.8c-0.9-0.8-2.3-1-4.2-0.8l-9.5,1.4c-3.8,0.5-5.6,2.6-5.6,6.2V30
					c0,2.3,1.2,3.8,3.3,4.3c1.2,0.3,2.5,0.5,3.7,0.6c1,0.2,2.1,0.3,3.1,0.5c2.7,0.5,4.1,2.1,4.1,4.4v2.7c0,1.3-0.7,2.1-2,2.3l-4,0.6
					c-0.7,0.1-1.2,0-1.6-0.3c-0.4-0.3-0.6-0.8-0.6-1.5v-1.4c0-0.6-0.1-1.1-0.4-1.3c-0.4-0.3-1-0.4-1.8-0.3L102.2,41.2z"/>
			</g>
			<g>
				<path fill="#FCC10F" d="M155.5,8.4c-1.2,0.1-1.8,0.8-1.8,1.9c0,0.4,0,0.6,0,0.9c0,11.1,0,22.2,0,33.3c0,1.1,0.6,1.6,1.8,1.5
					c-2.5,0.3-3.7,0.4-6.1,0.8c-1.9,0.2-2.8-0.4-2.8-2c0-4.5,0-6.8,0-11.3c0-1.1-0.5-1.5-1.6-1.4c-2.6,0.3-3.9,0.5-6.6,0.9
					c-1.1,0.1-1.6,0.7-1.6,1.8c0,4.5,0,6.8,0,11.3c0,1.6-0.9,2.5-2.8,2.8c-2.5,0.3-3.7,0.5-6.1,0.8c1.2-0.2,1.8-0.8,1.8-2
					c0-11.4,0-22.8,0-34.2c0-1.1-0.6-1.6-1.8-1.5c2.4-0.3,3.7-0.5,6.1-0.8c1.9-0.3,2.8,0.4,2.8,2c0,4.5,0,6.7,0,11.2
					c0,1.1,0.5,1.5,1.6,1.4c1.9-0.3,2.9-0.4,4.8-0.6c0.7-0.1,1.1-0.1,1.8-0.2c1.1-0.1,1.6-0.7,1.6-1.8c0-4.5,0-6.7,0-11.2
					c0-1.6,0.9-2.5,2.8-2.8C151.8,8.8,153,8.7,155.5,8.4z"/>
				<path fill="#E51E25" d="M127.8,50.1c-0.2,0-0.5-0.2-0.5-0.4c0-0.3,0.2-0.5,0.4-0.6c1-0.1,1.4-0.6,1.4-1.5V13.5
					c0-0.4-0.1-0.7-0.3-0.8c-0.2-0.2-0.7-0.2-1-0.1c-0.3,0-0.5-0.2-0.6-0.4c0-0.3,0.2-0.5,0.4-0.6c2.4-0.3,3.7-0.5,6.1-0.8
					c1.2-0.2,2.1,0,2.6,0.5c0.5,0.4,0.8,1.1,0.8,2v11.2c0,0.3,0,0.6,0.2,0.8c0.2,0.2,0.5,0.2,0.8,0.1c1.9-0.3,2.9-0.4,4.8-0.6
					l1.8-0.2c0.8-0.1,1.1-0.5,1.1-1.3V11.9c0-1.3,0.6-2.9,3.3-3.3c2.5-0.3,3.7-0.5,6.1-0.8c0,0,0,0,0,0c0.3,0,0.5,0.2,0.6,0.4
					c0,0.3-0.2,0.5-0.4,0.6l0,0c-1,0.1-1.4,0.5-1.4,1.4v34.2c0,0.4,0.1,0.7,0.3,0.8c0.2,0.2,0.7,0.2,1,0.2h0c0.3,0,0.5,0.2,0.6,0.4
					c0,0.3-0.2,0.5-0.4,0.6c0,0,0,0,0,0c-2.4,0.3-3.7,0.4-6.1,0.7c-1.2,0.1-2.1,0-2.6-0.5c-0.5-0.4-0.8-1.1-0.8-2V33.4
					c0-0.3,0-0.6-0.2-0.8c-0.2-0.2-0.5-0.2-0.8-0.1c-2.6,0.3-3.9,0.5-6.6,0.9c-0.8,0.1-1.2,0.5-1.2,1.3V46c0,1.3-0.6,2.9-3.3,3.3
					C131.5,49.6,130.3,49.8,127.8,50.1C127.8,50.1,127.8,50.1,127.8,50.1z M129.8,12.2c0.2,0.3,0.3,0.7,0.3,1.2v34.2
					c0,0.4-0.1,0.8-0.2,1.2c1.3-0.2,2.4-0.3,4-0.5c2.2-0.3,2.4-1.4,2.4-2.3V34.7c0-1.3,0.7-2.1,2-2.3c2.6-0.4,3.9-0.5,6.6-0.9
					c0.7-0.1,1.2,0,1.6,0.4c0.4,0.3,0.6,0.8,0.6,1.5v11.3c0,0.6,0.1,1,0.4,1.2c0.4,0.3,1,0.4,1.9,0.3c1.7-0.2,2.8-0.4,4.2-0.5
					c-0.2-0.3-0.3-0.7-0.3-1.2V10.3c0-0.4,0.1-0.8,0.2-1.2c-1.3,0.2-2.4,0.3-4,0.5c-2.2,0.3-2.4,1.4-2.4,2.3v11.2
					c0,1.3-0.7,2.1-2,2.3l-1.8,0.2c-1.9,0.3-2.9,0.4-4.8,0.6c-0.7,0.1-1.2,0-1.6-0.4c-0.4-0.3-0.6-0.8-0.6-1.5V13.2
					c0-0.6-0.1-1-0.4-1.2c-0.4-0.3-1-0.4-1.9-0.3C132.3,11.9,131.1,12.1,129.8,12.2z"/>
			</g>
			<g>
				<path fill="#FCC10F" d="M183.4,43.2c-7,0.6-10.5,0.9-17.5,1.7c-4.1,0.4-6.1-1.3-6.1-5.3c0-3.4,0-5,0-8.4c0-2.4,1.3-4.5,3.7-5.7
					c2.1-1.1,4.7-2,6.9-3.1c2.5-1.1,3.7-2.8,3.7-4.6c0-1.1,0-1.6,0-2.7c0-1.1-0.5-1.5-1.6-1.4c-1.6,0.2-2.4,0.2-4,0.4
					c-1.1,0.1-1.6,0.7-1.6,1.8c0,0.5,0,0.7,0,1.2c0,1.5-0.9,2.5-2.6,2.9c-2.6,0.3-3.9,0.4-6.5,0.7c1.2-0.1,1.8-0.8,1.8-2
					c0-1.9,0-2.9,0-4.8c0-3.9,2-6.2,6.1-6.6c3.8-0.4,5.6-0.6,9.4-0.9c4.1-0.4,6.1,1.4,6.1,5.4c0,10,0,19.9,0,29.9
					C181.4,42.7,182.1,43.3,183.4,43.2z M174.2,35.3c0-3.2,0-4.8,0-7.9c-2.5,1.1-4.2,2.1-5.2,2.9c-1.3,1-1.9,2-1.9,3.1
					c0,1.1,0,1.6,0,2.7c0,1.1,0.5,1.5,1.6,1.4c1.6-0.2,2.4-0.2,4-0.4C173.7,36.9,174.2,36.3,174.2,35.3z"/>
				<path fill="#E51E25" d="M164.8,45.4c-1.6,0-2.9-0.4-3.8-1.2c-1.1-1-1.6-2.6-1.6-4.7v-8.4c0-2.6,1.5-4.9,4-6.2
					c1.3-0.6,2.7-1.2,4.1-1.8c1-0.4,2-0.8,2.9-1.3c1.6-0.7,3.4-2.1,3.4-4.2V15c0-0.4-0.1-0.6-0.2-0.8c-0.2-0.1-0.4-0.2-0.8-0.2
					c-1.6,0.2-2.4,0.2-4,0.4c-0.8,0.1-1.1,0.5-1.1,1.3V17c0,1.2-0.5,2.8-3,3.4c-2.6,0.3-3.9,0.4-6.5,0.7h0l0,0
					c-0.3,0-0.5-0.2-0.6-0.4c0-0.3,0.2-0.5,0.4-0.6c1-0.1,1.4-0.6,1.4-1.5v-4.8c0-4.2,2.3-6.6,6.6-7.1c3.8-0.4,5.6-0.6,9.4-0.9
					c2.2-0.2,3.9,0.2,5,1.2c1.1,1,1.6,2.6,1.6,4.6v29.9c0,0.4,0.1,0.8,0.3,0.9c0.2,0.2,0.6,0.3,1.1,0.2c0.3,0,0.5,0.2,0.5,0.5
					c0,0.3-0.2,0.5-0.5,0.5h0c0,0,0,0,0,0c-7.1,0.6-10.6,0.9-17.4,1.7C165.6,45.4,165.2,45.4,164.8,45.4z M172.9,13
					c0.5,0,0.9,0.1,1.3,0.4c0.4,0.3,0.6,0.8,0.6,1.5v2.7c0,1.5-0.7,3.5-4,5.1c-0.9,0.4-1.9,0.9-2.9,1.3c-1.4,0.6-2.8,1.2-4,1.8
					c-2.2,1.1-3.5,3-3.5,5.3v8.4c0,1.8,0.4,3.1,1.3,3.9c0.9,0.8,2.3,1.1,4.3,0.9c6.2-0.7,9.6-1,15.4-1.5c-0.2-0.4-0.3-0.8-0.3-1.3
					V11.6c0-1.8-0.4-3.1-1.3-3.9c-0.9-0.8-2.3-1.2-4.3-1c-3.8,0.4-5.6,0.5-9.4,0.9c-3.8,0.4-5.7,2.4-5.7,6.1v4.8
					c0,0.5-0.1,0.9-0.3,1.3c1.4-0.2,2.6-0.3,4.4-0.5c1.4-0.4,2.1-1.1,2.1-2.4v-1.2c0-1.3,0.7-2.1,2-2.2c1.6-0.2,2.4-0.2,4-0.4
					C172.7,13,172.8,13,172.9,13z M168.3,37.9c-0.5,0-0.9-0.1-1.2-0.4c-0.4-0.3-0.6-0.8-0.6-1.5v-2.7c0-1.2,0.7-2.4,2.1-3.5
					c1.1-0.8,2.9-1.9,5.3-2.9c0.2-0.1,0.3-0.1,0.5,0c0.1,0.1,0.2,0.2,0.2,0.4v7.9c0,1.3-0.7,2.1-2,2.2c-1.6,0.2-2.4,0.2-4,0.4
					C168.6,37.9,168.5,37.9,168.3,37.9z M173.7,28.1c-2,0.9-3.5,1.8-4.4,2.5c-1.2,0.9-1.7,1.8-1.7,2.7V36c0,0.4,0.1,0.6,0.2,0.8
					c0.2,0.1,0.4,0.2,0.8,0.1c1.6-0.2,2.4-0.2,4-0.4c0.8-0.1,1.1-0.4,1.1-1.2V28.1z"/>
			</g>
			<g>
				<path fill="#FCC10F" d="M220,4c-1.1,0-1.7,0.6-1.8,1.7c-1.2,11.4-2.4,22.8-3.7,34.2c0,1.1,0.6,1.7,1.8,1.7c-2.4,0-3.7,0-6.1,0.1
					c-0.8,0-1.5-0.2-2-0.7c-0.2-0.2-0.6-0.7-1.2-1.7c-1.2-1.8-3.1-6-5.8-12.7c-0.8,2-1.5,3.9-2.2,5.5c-1.6,3.9-2.8,6.5-3.6,7.8
					c-0.6,1-1,1.6-1.2,1.8c-0.5,0.5-1.1,0.8-2,0.8c-2.4,0.2-3.7,0.2-6.1,0.4c1.2-0.1,1.8-0.7,1.8-1.8c0-0.2,0-0.3,0-0.5
					c-1.2-11.1-2.4-22.3-3.7-33.4c-0.1-1.1-0.7-1.7-1.8-1.6c2.5-0.2,3.7-0.3,6.1-0.5c0.9-0.1,1.6,0.1,2,0.4c0.4,0.3,0.6,0.9,0.8,1.8
					c0.4,2.7,0.6,4,1,6.7c0.9,4.6,1.3,7,2.2,11.6c0.2,0.9,0.7,1.3,1.5,1.2c0.7,0,1.3-0.6,1.7-1.7c1.4-3.7,2.1-5.6,3.5-9.3
					c1.3,3.6,1.9,5.4,3.2,9c0.4,1.1,0.9,1.6,1.6,1.6c0.9,0,1.4-0.5,1.6-1.4c1.3-7.4,1.9-11.2,3.2-18.6c0.2-0.9,0.5-1.5,0.9-1.9
					c0.4-0.4,1-0.6,2-0.6C216.3,4,217.5,4,220,4z"/>
				<path fill="#E51E25" d="M186.2,43.4c-0.3,0-0.5-0.2-0.5-0.5c0-0.3,0.2-0.5,0.5-0.5c0,0,0,0,0,0c0.9-0.1,1.3-0.5,1.3-1.3l0-0.5
					l-3.7-33.3c-0.1-0.9-0.5-1.2-1.3-1.1c0,0,0,0,0,0l0,0c-0.3,0-0.5-0.2-0.5-0.5c0-0.3,0.2-0.5,0.5-0.5c2.5-0.2,3.7-0.3,6.1-0.5
					c1.1-0.1,1.9,0.1,2.4,0.5c0.4,0.4,0.8,1,1,2l1,6.7l2.2,11.6c0.1,0.6,0.4,0.8,1,0.8c0.5,0,0.9-0.5,1.2-1.4l3.5-9.3
					c0.1-0.2,0.3-0.3,0.5-0.3c0.2,0,0.4,0.1,0.5,0.3l3.2,9c0.4,1.3,1,1.2,1.1,1.2c0.7,0,1-0.3,1.1-1l3.2-18.6c0.2-1,0.6-1.7,1-2.2
					c0.5-0.5,1.2-0.7,2.3-0.7c2.5,0,3.7,0,6.1,0c0.3,0,0.5,0.2,0.5,0.5s-0.2,0.5-0.5,0.5c-0.8,0-1.2,0.4-1.3,1.3L215,40
					c0,0.8,0.4,1.1,1.3,1.1l0,0c0,0,0,0,0,0c0.3,0,0.5,0.2,0.5,0.5c0,0.3-0.2,0.5-0.5,0.5h0c-2.4,0-3.7,0-6.1,0.1
					c-1,0-1.7-0.2-2.3-0.8c-0.1-0.1-0.4-0.4-1.2-1.8c-1.1-1.7-2.9-5.5-5.4-11.6c-0.6,1.6-1.2,3-1.7,4.3c-1.6,3.9-2.8,6.5-3.7,7.8
					c-0.7,1.2-1.1,1.7-1.2,1.9c-0.6,0.6-1.3,0.9-2.3,1C189.9,43.2,188.7,43.3,186.2,43.4C186.2,43.4,186.2,43.4,186.2,43.4z
					 M184.5,6c0.2,0.3,0.3,0.7,0.4,1.2l3.7,33.4l0,0.6c0,0.4-0.1,0.8-0.3,1.2c1.3-0.1,2.4-0.2,4-0.3c0.7,0,1.2-0.3,1.6-0.7
					c0.2-0.2,0.8-1.2,1.1-1.7c0.8-1.3,2-3.9,3.6-7.7c0.7-1.6,1.4-3.5,2.2-5.5c0.1-0.2,0.3-0.3,0.5-0.3c0.2,0,0.4,0.1,0.5,0.3
					c2.7,6.6,4.7,10.9,5.8,12.6c0.8,1.3,1,1.5,1.1,1.6c0.4,0.4,0.9,0.5,1.6,0.5c1.7,0,2.8-0.1,4.1-0.1c-0.2-0.3-0.3-0.7-0.3-1.2
					l3.7-34.3c0-0.5,0.2-0.8,0.3-1.2c-1.3,0-2.5,0-4.2,0c-0.8,0-1.3,0.2-1.6,0.4c-0.3,0.3-0.6,0.8-0.7,1.6l-3.2,18.6
					c-0.2,1.1-0.9,1.7-2,1.8c-0.6,0-1.5-0.3-2.1-1.9l-2.7-7.7l-3.1,8c-0.5,1.3-1.2,2-2.1,2c-1.1,0.1-1.8-0.5-2-1.6L192,14.2l-1-6.7
					c-0.2-1-0.5-1.3-0.7-1.5c-0.2-0.2-0.7-0.4-1.6-0.3C187,5.8,185.9,5.9,184.5,6z"/>
			</g>
			<g>
				<path fill="#FCC10F" d="M75.6,79.5c0,1.9-0.9,3.5-2.6,4.9c1.7,0.9,2.6,2.4,2.6,4.2c0,3.3,0,5,0,8.4c0,1.9-0.6,3.5-1.7,4.6
					c-1.1,1.1-2.5,1.8-4.3,2c-6.9,0.8-10.4,1.2-17.3,1.9c1.2-0.1,1.8-0.8,1.8-2c0-11.3,0-22.7,0-34c0-1.2-0.6-1.7-1.8-1.6
					c6.9-0.7,10.4-1.1,17.3-1.9c1.8-0.2,3.3,0.1,4.3,0.9c1.1,0.9,1.7,2.3,1.7,4.2C75.6,74.4,75.6,76.1,75.6,79.5z M68.4,79.6
					c0-2,0-2.9,0-4.9c0-1.1-0.5-1.5-1.6-1.4c-1.6,0.2-2.4,0.3-4,0.5c-1.1,0.1-1.6,0.7-1.6,1.8c0,2,0,2.9,0,4.9
					c0,1.1,0.5,1.5,1.6,1.4c1.6-0.2,2.4-0.3,4-0.5C67.9,81.3,68.4,80.7,68.4,79.6z M68.4,95.1c0-1.9,0-2.9,0-4.9
					c0-1.1-0.5-1.5-1.6-1.4c-1.6,0.2-2.4,0.3-4,0.5c-1.1,0.1-1.6,0.7-1.6,1.8c0,1.9,0,2.9,0,4.9c0,1.1,0.5,1.5,1.6,1.4
					c1.6-0.2,2.4-0.3,4-0.5C67.9,96.7,68.4,96.2,68.4,95.1z"/>
				<path fill="#E51E25" d="M52.3,106c-0.3,0-0.5-0.2-0.5-0.5c0-0.3,0.2-0.5,0.4-0.5c1-0.1,1.4-0.5,1.4-1.5l0-34
					c0-0.4-0.1-0.8-0.3-0.9c-0.2-0.2-0.5-0.2-1-0.2c0,0,0,0,0,0c-0.3,0-0.5-0.2-0.5-0.4c0-0.3,0.2-0.5,0.4-0.5c0,0,0,0,0,0
					c7-0.7,10.4-1.1,17.3-1.9c1.9-0.2,3.5,0.1,4.7,1c1.3,1,1.9,2.5,1.9,4.6l0,8.4c0,1.8-0.7,3.4-2.2,4.8c1.5,1,2.2,2.5,2.2,4.3V97
					c0,2-0.6,3.7-1.8,5c-1.1,1.2-2.7,1.9-4.6,2.1C62.8,104.9,59.3,105.3,52.3,106C52.3,106,52.3,106,52.3,106L52.3,106
					C52.3,106,52.3,106,52.3,106z M54.3,68.2c0.2,0.3,0.3,0.8,0.3,1.3l0,34c0,0.5-0.1,0.9-0.3,1.3c5.6-0.6,9.1-1,15.2-1.7
					c1.7-0.2,3-0.8,4-1.8c1-1.1,1.6-2.5,1.6-4.3v-8.4c0-1.7-0.8-2.9-2.3-3.8c-0.1-0.1-0.2-0.2-0.3-0.4c0-0.2,0.1-0.3,0.2-0.4
					c1.6-1.3,2.4-2.7,2.4-4.5l0-8.4c0-1.7-0.5-3-1.5-3.8c-1-0.8-2.3-1-4-0.8C63.4,67.2,60,67.6,54.3,68.2z M62.5,97.9
					c-0.5,0-0.9-0.1-1.2-0.4c-0.4-0.3-0.6-0.8-0.6-1.5v-4.9c0-1.3,0.7-2.1,2-2.3c1.6-0.2,2.4-0.3,4-0.5c0.7-0.1,1.2,0,1.6,0.4
					c0.4,0.3,0.6,0.8,0.6,1.5v4.9c0,1.3-0.7,2.1-2,2.3c-1.6,0.2-2.4,0.3-4.1,0.5C62.7,97.8,62.6,97.9,62.5,97.9z M67.2,89.3
					c-0.1,0-0.2,0-0.3,0c-1.6,0.2-2.4,0.3-4.1,0.5c-0.8,0.1-1.1,0.5-1.1,1.3v4.9c0,0.3,0,0.6,0.2,0.8c0.2,0.2,0.5,0.2,0.8,0.1
					c1.6-0.2,2.4-0.3,4-0.5c0.8-0.1,1.1-0.5,1.1-1.3v-4.9c0-0.3,0-0.6-0.2-0.8C67.6,89.4,67.4,89.3,67.2,89.3z M62.5,82.4
					c-0.5,0-0.9-0.1-1.2-0.4c-0.4-0.3-0.6-0.8-0.6-1.5v-4.9c0-1.3,0.7-2.1,2-2.3c1.6-0.2,2.4-0.3,4-0.5c0.7-0.1,1.2,0,1.6,0.4
					c0.4,0.3,0.6,0.8,0.6,1.5v4.9c0,1.3-0.7,2.1-2,2.3c-1.6,0.2-2.4,0.3-4.1,0.5C62.7,82.4,62.6,82.4,62.5,82.4z M67.2,73.8
					c-0.1,0-0.2,0-0.3,0c-1.6,0.2-2.4,0.3-4.1,0.5c-0.8,0.1-1.1,0.5-1.1,1.3v4.9c0,0.3,0,0.6,0.2,0.8c0.2,0.1,0.4,0.2,0.8,0.1
					c1.6-0.2,2.4-0.3,4-0.5c0.8-0.1,1.1-0.5,1.1-1.3v-4.9c0-0.3,0-0.6-0.2-0.8C67.6,73.8,67.4,73.8,67.2,73.8z"/>
			</g>
			<g>
				<path fill="#FCC10F" d="M105.7,67c0,10.3,0,15.4,0,25.7c0,4-2,6.3-6,6.9c-4.8,0.7-7.2,1-11.9,1.6c-4,0.5-6-1.2-6-5.2
					c0-10.3,0-15.4,0-25.7c0-3.9,2-6.2,6-6.7c4.8-0.6,7.2-1,11.9-1.6C103.7,61.4,105.7,63.1,105.7,67z M98.5,90.9
					c0-8.1,0-12.1,0-20.1c0-1.1-0.5-1.5-1.6-1.4c-2.6,0.4-3.9,0.5-6.5,0.9c-1.1,0.1-1.6,0.7-1.6,1.8c0,8.1,0,12.1,0,20.1
					c0,1.1,0.5,1.5,1.6,1.4c2.6-0.4,3.9-0.5,6.5-0.9C98,92.6,98.5,92,98.5,90.9z"/>
				<path fill="#E51E25" d="M86.4,101.8c-1.5,0-2.7-0.4-3.5-1.1c-1.1-1-1.7-2.5-1.7-4.7l0-25.7c0-4.2,2.2-6.6,6.4-7.2
					c4.8-0.6,7.2-1,11.9-1.6c2.2-0.3,3.8,0,4.9,1c1.1,0.9,1.6,2.5,1.6,4.6v25.7c0,4.3-2.2,6.7-6.4,7.3c-4.8,0.7-7.2,1-11.9,1.6
					C87.3,101.8,86.9,101.8,86.4,101.8z M101.1,62.4c-0.4,0-0.9,0-1.3,0.1c-4.8,0.7-7.2,1-11.9,1.6c-3.8,0.5-5.6,2.5-5.6,6.2l0,25.7
					c0,1.8,0.4,3.2,1.3,3.9c0.9,0.8,2.3,1,4.1,0.8c4.8-0.6,7.2-1,11.9-1.6c3.8-0.5,5.6-2.6,5.6-6.4V67c0-1.8-0.4-3.1-1.3-3.8
					C103.3,62.7,102.3,62.4,101.1,62.4z M90.1,94.1c-0.5,0-0.9-0.1-1.2-0.4c-0.4-0.3-0.6-0.8-0.6-1.5l0-20.1c0-1.3,0.7-2.1,2-2.3
					c2.6-0.4,3.9-0.5,6.5-0.9c0.7-0.1,1.2,0,1.6,0.4c0.4,0.3,0.6,0.8,0.6,1.5l0,20.1c0,1.3-0.7,2.1-2,2.3c-2.6,0.4-3.9,0.5-6.5,0.9
					C90.4,94.1,90.3,94.1,90.1,94.1z M97.3,69.9c-0.1,0-0.2,0-0.3,0c-2.6,0.4-3.9,0.5-6.5,0.9c-0.8,0.1-1.2,0.5-1.2,1.3l0,20.1
					c0,0.3,0,0.6,0.2,0.8c0.2,0.2,0.5,0.2,0.8,0.1c2.6-0.4,3.9-0.5,6.5-0.9c0.8-0.1,1.2-0.5,1.2-1.3l0-20.1c0-0.3,0-0.6-0.2-0.8
					C97.7,69.9,97.5,69.9,97.3,69.9z"/>
			</g>
			<g>
				<path fill="#FCC10F" d="M137.2,56.8c-1.2,0.2-1.8,0.8-1.8,2c0,4.1,0,6.1,0,10.1c0,2.7-0.9,4.6-2.6,5.8c-2.4,1.7-3.6,2.6-6.1,4.4
					c0,5.9,0,8.8,0,14.7c0,1.2,0.6,1.7,1.8,1.6c-2.6,0.4-3.9,0.5-6.4,0.9c-1.7,0.2-2.5-0.5-2.5-2.1c0-4.3,0-6.4,0-10.7
					c-0.6,0.3-1.2,0.6-1.8,0.6c-1.7,0.2-3.3-0.4-4.8-1.9c-1.4-1.4-2.1-2.8-2.1-4.2c0-6.4,0-9.6,0-16c0-1.2-0.6-1.7-1.8-1.5
					c2.6-0.4,3.9-0.6,6.5-0.9c1.7-0.2,2.5,0.5,2.5,2.1c0,4.7,0,7.1,0,11.8c0,1,0.5,1.4,1.5,1.3c0.2,0,0.5-0.1,0.7-0.2
					c1.4-0.8,2.1-1.2,3.5-2c1.1-0.6,2.1-1.3,3-2.2c1-1.1,1.5-2.1,1.5-3.1c0-2.8,0-4.1,0-6.9c0-1.7,0.8-2.6,2.5-2.8
					C133.3,57.3,134.6,57.1,137.2,56.8z"/>
				<path fill="#E51E25" d="M121.5,97c-0.7,0-1.2-0.2-1.6-0.5c-0.5-0.5-0.8-1.2-0.8-2.1v-9.9c-0.4,0.2-0.8,0.3-1.2,0.3
					c-1.8,0.3-3.6-0.4-5.2-2c-1.5-1.5-2.2-3-2.2-4.5v-16c0-0.4-0.1-0.8-0.3-0.9c-0.2-0.2-0.5-0.2-1-0.1l0,0c-0.3,0-0.5-0.2-0.6-0.4
					c0-0.3,0.2-0.5,0.4-0.6l6.5-0.9c1-0.1,1.8,0,2.3,0.5c0.5,0.5,0.8,1.2,0.8,2.1v11.8c0,0.2,0,0.5,0.2,0.7c0.2,0.1,0.5,0.1,0.7,0.1
					c0.2,0,0.3-0.1,0.5-0.2l3.5-2c1.1-0.6,2.1-1.3,2.8-2.1c0.9-1,1.4-1.9,1.4-2.8v-6.9c0-1.9,1-3.1,2.9-3.3c2.6-0.4,3.9-0.5,6.5-0.9
					l0,0c0.3,0,0.5,0.2,0.6,0.4c0,0.3-0.2,0.5-0.4,0.6c0,0,0,0,0,0c-1,0.1-1.4,0.6-1.4,1.6V69c0,2.9-0.9,5-2.8,6.3
					c-2.3,1.7-3.6,2.6-5.8,4.2V94c0,0.4,0.1,0.8,0.3,0.9c0.2,0.2,0.5,0.2,0.9,0.1c0,0,0,0,0,0l0,0c0.3,0,0.5,0.2,0.6,0.4
					s-0.2,0.5-0.4,0.6c-2.6,0.4-3.9,0.5-6.4,0.9C121.9,96.9,121.7,97,121.5,97z M119.6,83.1c0.1,0,0.2,0,0.2,0.1
					c0.2,0.1,0.3,0.3,0.3,0.4v10.7c0,0.7,0.1,1.1,0.4,1.4c0.3,0.3,0.8,0.3,1.5,0.2c1.9-0.3,3.1-0.4,4.6-0.6
					c-0.2-0.3-0.3-0.8-0.3-1.3V79.2c0-0.2,0.1-0.3,0.2-0.4c2.4-1.8,3.6-2.6,6.1-4.4c1.6-1.1,2.4-2.9,2.4-5.4V58.8
					c0-0.5,0.1-0.9,0.3-1.3c-1.4,0.2-2.6,0.4-4.4,0.6c-1.4,0.2-2.1,0.9-2.1,2.3v6.9c0,1.1-0.5,2.3-1.6,3.5c-0.9,0.9-1.9,1.7-3.1,2.4
					l-3.5,1.9c-0.3,0.2-0.6,0.3-0.9,0.3c-0.7,0.1-1.2,0-1.5-0.3c-0.4-0.3-0.5-0.8-0.5-1.4V61.9c0-0.7-0.1-1.1-0.4-1.4
					c-0.3-0.3-0.8-0.3-1.5-0.2l-4.6,0.6c0.2,0.3,0.3,0.8,0.3,1.3v16c0,1.3,0.6,2.5,1.9,3.8c1.4,1.4,2.8,1.9,4.3,1.7
					c0.6-0.1,1.1-0.3,1.6-0.6C119.4,83.1,119.5,83.1,119.6,83.1z"/>
			</g>
			<g>
				<path fill="#FCC10F" d="M169.3,77.9c-1.2,0.1-1.8,0.8-1.8,2c0,1.9,0,2.9,0,4.8c0,4-2,6.2-6,6.7c-7.3,0.8-10.9,1.3-18.2,2.2
					c-1.1,0.1-1.7,0.8-1.7,2.1c0-2.1,0-3.2,0-5.3c0-2.7,0.8-5,2.3-6.8c5.6-7.8,8.3-11.7,13.9-19.4c0.5-0.7,0.8-1.3,0.8-1.8
					c0-0.7-0.4-1-1.2-0.9c-2.8,0.3-4.2,0.5-6.9,0.8c-1.1,0.1-1.6,0.7-1.6,1.8c0,0.5,0,0.8,0,1.4c0,1.7-0.8,2.6-2.5,2.8
					c-2.6,0.3-3.9,0.5-6.5,0.8c1.2-0.2,1.8-0.8,1.8-2.1c0-1.9,0-2.8,0-4.7c0-4,2-6.3,6-6.8c7.3-0.9,10.9-1.4,18.2-2.1
					c1.1-0.1,1.7-0.8,1.7-2c0,2.1,0,3.2,0,5.3c0,2.7-0.8,5-2.3,6.8c-5.6,7.7-8.3,11.5-13.9,19.3c-0.5,0.7-0.8,1.3-0.8,1.7
					c0,0.7,0.4,1,1.3,0.9c2.8-0.3,4.2-0.5,6.9-0.8c1.1-0.1,1.6-0.7,1.6-1.8c0-0.5,0-0.8,0-1.4c0-1.7,0.8-2.6,2.5-2.8
					C165.4,78.3,166.7,78.1,169.3,77.9z"/>
				<path fill="#E51E25" d="M141.6,96.1c-0.3,0-0.5-0.2-0.5-0.5v-5.3c0-2.8,0.8-5.3,2.4-7.2c5.5-7.8,8.3-11.7,13.9-19.4
					c0.5-0.8,0.7-1.2,0.7-1.5c0-0.1,0-0.3-0.1-0.3c0,0-0.2-0.1-0.6-0.1c-2.8,0.3-4.2,0.5-6.9,0.8c-0.8,0.1-1.1,0.5-1.1,1.3v1.4
					c0,1.9-1,3.1-2.9,3.3c-2.6,0.3-3.9,0.5-6.5,0.8c-0.3,0-0.5-0.2-0.6-0.4s0.2-0.5,0.4-0.6c1-0.1,1.4-0.6,1.4-1.6v-4.7
					c0-4.3,2.2-6.7,6.4-7.3c7.3-0.9,11-1.4,18.2-2.1c0.9-0.1,1.3-0.5,1.3-1.5c0-0.3,0.2-0.5,0.5-0.5s0.5,0.2,0.5,0.5v5.3
					c0,2.9-0.8,5.3-2.4,7.1c-5.5,7.6-8.3,11.5-13.9,19.3c-0.6,0.7-0.7,1.2-0.7,1.4c0,0.1,0,0.3,0.1,0.4c0,0,0.2,0.1,0.6,0.1
					c2.8-0.3,4.2-0.5,6.9-0.8c0.8-0.1,1.1-0.5,1.1-1.3v-1.4c0-1.9,1-3.1,2.9-3.3c2.6-0.3,3.9-0.4,6.5-0.7c0.3,0,0.5,0.2,0.5,0.4
					c0,0.3-0.2,0.5-0.4,0.5l0,0c0,0,0,0,0,0c-0.9,0.1-1.4,0.5-1.4,1.5v4.8c0,4.3-2.2,6.7-6.5,7.2c-7.2,0.8-10.9,1.3-18.2,2.2
					c-0.9,0.1-1.3,0.6-1.3,1.6C142.1,95.8,141.9,96.1,141.6,96.1z M157.5,60.8c0.4,0,0.8,0.1,1,0.3c0.3,0.3,0.4,0.6,0.4,1.1
					c0,0.6-0.3,1.3-0.9,2.1c-5.6,7.7-8.3,11.6-13.9,19.4c-1.5,1.8-2.2,3.9-2.2,6.6v3.1c0.3-0.2,0.7-0.3,1.1-0.4
					c7.3-1,11-1.4,18.2-2.2c3.7-0.4,5.6-2.4,5.6-6.2v-4.8c0-0.5,0.1-0.9,0.3-1.3c-1.4,0.1-2.6,0.3-4.4,0.5c-1.4,0.2-2.1,0.9-2.1,2.3
					v1.4c0,1.3-0.7,2.1-2,2.3c-2.8,0.3-4.2,0.5-6.9,0.8c-0.6,0.1-1.1,0-1.4-0.3c-0.3-0.3-0.4-0.6-0.4-1.1c0-0.6,0.3-1.3,0.9-2
					c5.5-7.8,8.3-11.6,13.9-19.3c1.5-1.7,2.2-3.9,2.2-6.5v-3.2c-0.3,0.2-0.7,0.3-1.2,0.4c-7.3,0.8-10.9,1.2-18.2,2.1
					c-3.7,0.5-5.6,2.5-5.6,6.3v4.7c0,0.5-0.1,0.9-0.3,1.3c1.4-0.2,2.6-0.3,4.4-0.6c1.4-0.2,2.1-0.9,2.1-2.3V64c0-1.3,0.7-2.1,2-2.3
					c2.8-0.3,4.2-0.5,6.9-0.8C157.3,60.8,157.4,60.8,157.5,60.8z"/>
			</g>
		</g>
	</g>
	<g>
		<g>
			<path fill="#540B0B" d="M50.4,128.5c0-0.8,0.2-2.9,3-2.9c2.6,0,2.9,1.7,3,2.6c0,0.2-0.1,0.3-0.3,0.3c-0.5,0.1-0.8,0.2-1.3,0.3
				c-0.3,0.1-0.4-0.1-0.5-0.4c-0.1-0.5-0.3-0.8-0.9-0.8c-0.9,0-0.9,0.6-0.9,1.5c0,0.7,0,1,0,1.7c0,0.9,0.1,1.5,0.9,1.5
				c0.7,0,0.8-0.3,0.9-0.9c0-0.3,0.2-0.4,0.5-0.4c0.5,0.1,0.8,0.2,1.4,0.3c0.2,0,0.3,0.2,0.3,0.3c-0.1,0.9-0.4,2.6-3,2.7
				c-2.8,0-3-2.1-3-2.9C50.4,130.3,50.4,129.7,50.4,128.5z"/>
			<path fill="#540B0B" d="M59.2,128.1c0-0.2-0.1-0.4-0.4-0.3c-0.7,0-1,0-1.7,0c-0.2,0-0.4-0.1-0.4-0.4c0-0.5,0-0.8,0-1.3
				c0-0.2,0.1-0.4,0.4-0.4c2.5-0.1,3.7-0.1,6.1-0.2c0.2,0,0.4,0.1,0.4,0.3c0,0.5,0,0.8,0,1.3c0,0.2-0.1,0.4-0.4,0.4
				c-0.7,0-1,0-1.7,0.1c-0.2,0-0.4,0.1-0.4,0.4c0,2.2,0,3.4,0,5.6c0,0.2-0.1,0.4-0.4,0.4c-0.5,0-0.8,0-1.3,0c-0.2,0-0.4-0.1-0.4-0.3
				C59.2,131.5,59.2,130.4,59.2,128.1z"/>
			<path fill="#540B0B" d="M70.7,133c0.2,0.3,0,0.6-0.4,0.7c-0.5,0-0.8,0-1.4,0.1c-0.1,0-0.2,0-0.3-0.2c-0.5-0.9-0.7-1.4-1.2-2.3
				c0,0-0.1-0.1-0.1-0.1c-0.2,0-0.3,0-0.5,0c-0.2,0-0.4,0.2-0.4,0.4c0,0.8,0,1.1,0,1.9c0,0.2-0.2,0.4-0.4,0.4c-0.5,0-0.8,0-1.3,0.1
				c-0.2,0-0.4-0.1-0.4-0.4c0-3.1,0-4.6,0-7.7c0-0.2,0.2-0.4,0.4-0.4c1.1,0,1.6-0.1,2.6-0.1c2.1-0.1,3,0.7,3,2.7
				c0,1.1-0.3,1.9-0.9,2.4c0,0-0.1,0.1,0,0.2C69.9,131.6,70.2,132,70.7,133z M66.8,127.5c-0.2,0-0.4,0.2-0.4,0.4c0,0.4,0,0.5,0,0.9
				c0,0.2,0.2,0.4,0.4,0.4c0.2,0,0.4,0,0.6,0c0.6,0,0.9-0.1,0.9-0.9s-0.3-0.8-0.9-0.8C67.2,127.5,67.1,127.5,66.8,127.5z"/>
			<path fill="#540B0B" d="M73.2,125.1c0.2,0,0.4,0.1,0.4,0.3c0,2.2,0,3.4,0,5.6c0,0.2,0.1,0.4,0.4,0.3c1.1-0.1,1.6-0.1,2.7-0.2
				c0.2,0,0.4,0.1,0.4,0.3c0,0.5,0,0.8,0,1.3c0,0.2-0.1,0.4-0.4,0.4c-1.9,0.1-2.8,0.2-4.7,0.3c-0.2,0-0.4-0.1-0.4-0.3
				c0-3.1,0-4.6,0-7.7c0-0.2,0.1-0.4,0.4-0.4C72.4,125.1,72.7,125.1,73.2,125.1z"/>
			<path fill="#540B0B" d="M77.9,128.5c0-0.2,0.1-0.4,0.4-0.4c2.2-0.2,3.3-0.3,5.5-0.5c0.2,0,0.4,0.1,0.4,0.3c0,0.5,0,0.8,0,1.3
				c0,0.2-0.1,0.4-0.4,0.4c-2.2,0.2-3.3,0.3-5.5,0.5c-0.2,0-0.4-0.1-0.4-0.3C77.9,129.3,77.9,129.1,77.9,128.5z"/>
			<path fill="#540B0B" d="M89.8,126.7c-0.2,0.1-0.4,0-0.4-0.3c-0.1-0.5-0.5-0.8-1-0.7c-0.5,0-0.8,0.3-0.7,0.6c0.2,0.9,4,0.5,4,3.3
				c0,0.4-0.4,2.5-3.3,2.8c-2.5,0.2-3.1-1.4-3.1-2.3c0-0.2,0.1-0.4,0.3-0.4c0.5-0.2,0.8-0.3,1.4-0.4c0.2-0.1,0.4,0,0.4,0.3
				c0.1,0.6,0.5,0.9,1.1,0.8c0.6-0.1,1-0.4,0.9-0.8c-0.2-1-3.8-0.5-3.8-3.2c0-0.4,0.2-2.5,2.9-2.8c2.5-0.2,3.1,1.3,3.1,2.2
				c0,0.2-0.1,0.4-0.3,0.4C90.6,126.4,90.3,126.5,89.8,126.7z"/>
			<path fill="#540B0B" d="M98,125.3c0-0.2-0.1-0.3-0.4-0.3c-0.7,0.1-1,0.1-1.7,0.2c-0.2,0-0.4-0.1-0.4-0.3c0-0.5,0-0.8,0-1.3
				c0-0.2,0.1-0.4,0.4-0.4c2.5-0.3,3.7-0.4,6.1-0.7c0.2,0,0.4,0.1,0.4,0.3c0,0.5,0,0.8,0,1.3c0,0.2-0.1,0.4-0.4,0.4
				c-0.7,0.1-1,0.1-1.7,0.2c-0.2,0-0.4,0.2-0.4,0.4c0,2.2,0,3.4,0,5.6c0,0.2-0.1,0.4-0.4,0.4c-0.5,0.1-0.8,0.1-1.3,0.2
				c-0.2,0-0.4-0.1-0.4-0.3C98,128.6,98,127.5,98,125.3z"/>
			<path fill="#540B0B" d="M104.9,122c0.2,0,0.4,0.1,0.4,0.3c0,1.2,0,1.8,0,3c0,0.2,0.1,0.3,0.4,0.3c0.5-0.1,0.7-0.1,1.2-0.2
				c0.2,0,0.4-0.2,0.4-0.4c0-1.2,0-1.8,0-3c0-0.2,0.1-0.4,0.4-0.4c0.5-0.1,0.8-0.1,1.3-0.2c0.2,0,0.4,0.1,0.4,0.3c0,3.1,0,4.6,0,7.7
				c0,0.2-0.1,0.4-0.4,0.4c-0.5,0.1-0.8,0.1-1.3,0.2c-0.2,0-0.4-0.1-0.4-0.3c0-0.8,0-1.1,0-1.9c0-0.2-0.1-0.3-0.4-0.3
				c-0.5,0.1-0.7,0.1-1.2,0.2c-0.2,0-0.4,0.2-0.4,0.4c0,0.8,0,1.1,0,1.9c0,0.2-0.1,0.4-0.4,0.4c-0.5,0.1-0.8,0.1-1.3,0.2
				c-0.2,0-0.4-0.1-0.4-0.3c0-3.1,0-4.6,0-7.7c0-0.2,0.1-0.4,0.4-0.4C104.1,122.1,104.3,122,104.9,122z"/>
			<path fill="#540B0B" d="M115.8,120.4c0.2,0,0.4,0.1,0.4,0.3c0,0.5,0,0.8,0,1.3c0,0.2-0.1,0.4-0.4,0.4c-1.2,0.2-1.7,0.3-2.9,0.4
				c-0.2,0-0.4,0.2-0.4,0.4c0,0.2,0,0.2,0,0.4c0,0.2,0.1,0.3,0.4,0.3c0.7-0.1,1.1-0.2,1.9-0.3c0.2,0,0.4,0.1,0.4,0.3
				c0,0.5,0,0.8,0,1.3c0,0.2-0.1,0.4-0.4,0.4c-0.7,0.1-1.1,0.2-1.9,0.3c-0.2,0-0.4,0.2-0.4,0.4c0,0.2,0,0.2,0,0.4
				c0,0.2,0.1,0.3,0.4,0.3c1.2-0.2,1.7-0.3,2.9-0.4c0.2,0,0.4,0.1,0.4,0.3c0,0.5,0,0.8,0,1.3c0,0.2-0.1,0.4-0.4,0.4
				c-2,0.3-3,0.5-5,0.7c-0.2,0-0.4-0.1-0.4-0.3c0-3.1,0-4.6,0-7.7c0-0.2,0.1-0.4,0.4-0.4C112.7,120.9,113.7,120.7,115.8,120.4z"/>
			<path fill="#540B0B" d="M127,126.5c0.2,0.3,0,0.7-0.4,0.7c-0.5,0.1-0.8,0.1-1.4,0.2c-0.1,0-0.2,0-0.3-0.1
				c-0.5-0.9-0.7-1.3-1.2-2.2c0,0-0.1-0.1-0.1,0c-0.2,0-0.3,0-0.5,0.1c-0.2,0-0.4,0.2-0.4,0.4c0,0.8,0,1.1,0,1.9
				c0,0.2-0.2,0.4-0.4,0.4c-0.5,0.1-0.8,0.1-1.3,0.2c-0.2,0-0.4-0.1-0.4-0.3c0-3.1,0-4.6,0-7.7c0-0.2,0.2-0.4,0.4-0.4
				c1.1-0.2,1.6-0.2,2.6-0.4c2.1-0.3,3,0.5,3,2.4c0,1.1-0.3,1.9-0.9,2.5c0,0-0.1,0.1,0,0.2C126.2,125.2,126.5,125.6,127,126.5z
				 M123.1,121.4c-0.2,0-0.4,0.2-0.4,0.4c0,0.4,0,0.5,0,0.9c0,0.2,0.2,0.3,0.4,0.3c0.2,0,0.4-0.1,0.6-0.1c0.6-0.1,0.9-0.2,0.9-0.9
				s-0.3-0.8-0.9-0.7C123.5,121.3,123.4,121.3,123.1,121.4z"/>
			<path fill="#540B0B" d="M133.6,125.8c0,0.3-0.1,0.4-0.4,0.5c-0.5,0.1-0.8,0.1-1.3,0.2c-0.2,0-0.4-0.1-0.4-0.3c0-0.4,0-0.6,0-1
				c0-0.2-0.1-0.3-0.4-0.3c-0.4,0.1-0.6,0.1-1,0.1c-0.2,0-0.4,0.2-0.4,0.4c0,0.4,0,0.6,0,1c0,0.2-0.1,0.4-0.4,0.4
				c-0.5,0.1-0.8,0.1-1.3,0.2c-0.2,0-0.4-0.1-0.4-0.4c0-2,0-3.1,0-5.1c0-1.5,0.2-3.2,2.9-3.5c2.7-0.4,2.9,1.2,2.9,2.7
				C133.6,122.8,133.6,123.8,133.6,125.8z M131.5,121c0-0.6-0.1-0.9-0.9-0.7c-0.8,0.1-0.9,0.4-0.9,1c0,0.5,0,0.8,0,1.3
				c0,0.2,0.1,0.3,0.4,0.3c0.4-0.1,0.6-0.1,1-0.1c0.2,0,0.4-0.2,0.4-0.4C131.5,121.8,131.5,121.5,131.5,121z"/>
			<path fill="#540B0B" d="M136.4,117.5c0.2,0,0.4,0.1,0.4,0.3c0,3.1,0,4.6,0,7.7c0,0.2-0.1,0.4-0.4,0.4c-0.5,0.1-0.8,0.1-1.3,0.2
				c-0.2,0-0.4-0.1-0.4-0.3c0-3.1,0-4.6,0-7.7c0-0.2,0.1-0.4,0.4-0.4C135.6,117.6,135.9,117.5,136.4,117.5z"/>
			<path fill="#540B0B" d="M140.1,117.1c0.2,0,0.3,0,0.4,0.2c0.7,1.5,1,2.3,1.6,3.8c0,0.1,0.1,0.1,0.1-0.1c0-1.5,0-2.3,0-3.9
				c0-0.2,0.1-0.4,0.4-0.4c0.5-0.1,0.8-0.1,1.3-0.1c0.2,0,0.4,0.1,0.4,0.3c0,3.1,0,4.6,0,7.7c0,0.2-0.1,0.4-0.4,0.4
				c-0.7,0.1-1.1,0.1-1.8,0.2c-0.2,0-0.3,0-0.4-0.2c-0.7-1.5-1-2.3-1.6-3.8c0-0.1-0.1-0.1-0.1,0.1c0,1.5,0,2.3,0,3.9
				c0,0.2-0.1,0.4-0.4,0.4c-0.5,0.1-0.8,0.1-1.3,0.1c-0.2,0-0.4-0.1-0.4-0.3c0-3.1,0-4.6,0-7.7c0-0.2,0.1-0.4,0.4-0.4
				C139,117.2,139.4,117.1,140.1,117.1z"/>
			<path fill="#540B0B" d="M151.1,115.8c0.2,0,0.4,0.1,0.4,0.3c0,0.5,0,0.8,0,1.3c0,0.2-0.1,0.4-0.4,0.4c-1.2,0.1-1.8,0.2-3,0.3
				c-0.2,0-0.4,0.2-0.4,0.4c0,0.2,0,0.2,0,0.4c0,0.2,0.1,0.3,0.4,0.3c0.8-0.1,1.2-0.1,2-0.2c0.2,0,0.4,0.1,0.4,0.3
				c0,0.5,0,0.8,0,1.3c0,0.2-0.1,0.4-0.4,0.4c-0.8,0.1-1.2,0.1-2,0.2c-0.2,0-0.4,0.2-0.4,0.4c0,1,0,1.5,0,2.4c0,0.2-0.1,0.4-0.4,0.4
				c-0.6,0.1-0.8,0.1-1.4,0.2c-0.2,0-0.4-0.1-0.4-0.3c0-3.1,0-4.6,0-7.7c0-0.2,0.1-0.4,0.4-0.4C148,116.2,149,116.1,151.1,115.8z"/>
			<path fill="#540B0B" d="M157.9,120.8c0,0.8-0.2,2.9-3,3.2c-2.8,0.3-3-1.8-3-2.6c0-1.2,0-1.8,0-3c0-0.8,0.2-2.9,3-3.3
				c2.8-0.3,3,1.8,3,2.6C157.9,119,157.9,119.6,157.9,120.8z M155.9,118.6c0-0.9-0.1-1.5-0.9-1.4c-0.9,0.1-0.9,0.7-0.9,1.6
				c0,0.7,0,1,0,1.7c0,0.9,0.1,1.5,0.9,1.4s0.9-0.7,0.9-1.6C155.9,119.7,155.9,119.3,155.9,118.6z"/>
			<path fill="#540B0B" d="M165.3,122.1c0.2,0.3,0,0.6-0.4,0.7c-0.5,0.1-0.8,0.1-1.4,0.1c-0.1,0-0.2,0-0.3-0.1
				c-0.5-0.9-0.7-1.4-1.2-2.3c0,0-0.1-0.1-0.1-0.1c-0.2,0-0.3,0-0.5,0c-0.2,0-0.4,0.2-0.4,0.4c0,0.8,0,1.1,0,1.9
				c0,0.2-0.2,0.4-0.4,0.4c-0.5,0.1-0.8,0.1-1.3,0.1c-0.2,0-0.4-0.1-0.4-0.3c0-3.1,0-4.6,0-7.7c0-0.2,0.2-0.4,0.4-0.4
				c1.1-0.1,1.6-0.2,2.6-0.3c2.1-0.2,3,0.6,3,2.6c0,1.1-0.3,1.9-0.9,2.4c0,0-0.1,0.1,0,0.2C164.6,120.7,164.8,121.2,165.3,122.1z
				 M161.5,116.8c-0.2,0-0.4,0.2-0.4,0.4c0,0.4,0,0.5,0,0.9c0,0.2,0.2,0.4,0.4,0.3c0.2,0,0.4,0,0.6-0.1c0.6-0.1,0.9-0.2,0.9-0.9
				s-0.3-0.8-0.9-0.7C161.8,116.7,161.7,116.7,161.5,116.8z"/>
			<path fill="#540B0B" d="M171.5,113.8c0.2,0,0.4,0.1,0.4,0.3c0,0.5,0,0.8,0,1.3c0,0.2-0.1,0.4-0.4,0.4c-1.2,0.1-1.7,0.1-2.9,0.2
				c-0.2,0-0.4,0.2-0.4,0.4c0,0.2,0,0.2,0,0.4c0,0.2,0.1,0.3,0.4,0.3c0.7-0.1,1.1-0.1,1.9-0.1c0.2,0,0.4,0.1,0.4,0.3
				c0,0.5,0,0.8,0,1.3c0,0.2-0.1,0.4-0.4,0.4c-0.7,0.1-1.1,0.1-1.9,0.1c-0.2,0-0.4,0.2-0.4,0.4c0,0.2,0,0.2,0,0.4
				c0,0.2,0.1,0.3,0.4,0.3c1.2-0.1,1.7-0.1,2.9-0.2c0.2,0,0.4,0.1,0.4,0.3c0,0.5,0,0.8,0,1.3c0,0.2-0.1,0.4-0.4,0.4
				c-2,0.1-3,0.2-5,0.4c-0.2,0-0.4-0.1-0.4-0.3c0-3.1,0-4.6,0-7.7c0-0.2,0.1-0.4,0.4-0.4C168.5,114,169.5,114,171.5,113.8z"/>
			<path fill="#540B0B" d="M176.8,116.5c-0.2,0.1-0.4,0-0.4-0.3c-0.1-0.5-0.5-0.8-1-0.7c-0.5,0-0.8,0.3-0.7,0.6c0.2,0.9,4,0.7,4,3.5
				c0,0.4-0.4,2.5-3.3,2.6c-2.5,0.1-3.1-1.5-3.1-2.4c0-0.2,0.1-0.4,0.3-0.4c0.5-0.2,0.8-0.2,1.4-0.4c0.2-0.1,0.4,0,0.4,0.3
				c0.1,0.6,0.5,0.9,1.1,0.8c0.6,0,1-0.4,0.9-0.7c-0.2-1-3.8-0.6-3.8-3.3c0-0.4,0.2-2.5,2.9-2.7c2.5-0.1,3.1,1.5,3.1,2.3
				c0,0.2-0.1,0.4-0.3,0.4C177.6,116.2,177.3,116.3,176.8,116.5z"/>
			<path fill="#540B0B" d="M181.2,115.7c0-0.2-0.1-0.4-0.4-0.3c-0.7,0-1,0-1.7,0.1c-0.2,0-0.4-0.1-0.4-0.3c0-0.5,0-0.8,0-1.3
				c0-0.2,0.1-0.4,0.4-0.4c2.5-0.1,3.7-0.1,6.1-0.1c0.2,0,0.4,0.1,0.4,0.4c0,0.5,0,0.8,0,1.3c0,0.2-0.1,0.4-0.4,0.4
				c-0.7,0-1,0-1.7,0c-0.2,0-0.4,0.1-0.4,0.4c0,2.2,0,3.4,0,5.6c0,0.2-0.1,0.4-0.4,0.4c-0.5,0-0.8,0-1.3,0c-0.2,0-0.4-0.1-0.4-0.4
				C181.2,119.1,181.2,118,181.2,115.7z"/>
		</g>
	</g>
</g>
</svg>
